<svg width="802" height="239" viewBox="0 0 802 239" fill="none" xmlns="http://www.w3.org/2000/svg">
<rect x="1" y="1" width="800" height="237" rx="12" fill="black"/>
<path d="M259 125.629L169.493 162.533C155.019 168.5 140.131 167.104 124.59 163.506H124.531C109.762 160.078 95.5851 154.746 87.874 143.615C86.747 141.965 85.798 140.272 84.9676 138.579C90.2467 144.081 97.1273 148.271 104.898 150.895C109.05 152.334 113.38 153.307 117.828 153.815C128.209 155 139.123 153.772 149.029 149.667L207.929 125.375L198.379 111.62L259 125.629Z" fill="white"/>
<path d="M18 115.979L107.508 79.0752C121.981 73.1079 136.869 74.5045 152.41 78.1018H152.469C167.238 81.5298 181.415 86.8623 189.126 97.9929C190.253 99.6434 191.202 101.336 192.032 103.029C186.753 97.5273 179.873 93.3798 172.102 90.7136C167.95 89.2747 163.62 88.3013 159.172 87.7934C148.791 86.6084 137.877 87.8357 127.971 91.9409L69.0709 116.233L78.6207 129.988L18 115.979Z" fill="white"/>
<path d="M94 122.551L173 110L116.127 143L120.971 127.247L94 122.551Z" fill="white"/>
<path d="M668.446 140.049H680V183.653H668.613L668.027 177.296C665.264 182.457 657.645 184.925 652.202 184.999C637.717 185.074 627 177.146 627 161.814C627 146.78 638.22 138.852 652.453 139.002C658.984 139.002 665.264 141.769 668.027 146.107L668.446 140.049ZM639.057 161.889C639.057 170.191 645.504 175.202 653.542 175.202C672.548 175.202 672.548 148.725 653.542 148.725C645.504 148.65 639.057 153.512 639.057 161.889Z" fill="white"/>
<path d="M738 140.075L707.915 202H694.479L703.69 183.056L684 140.075H698.197L705.718 158.944L710.451 171.225L715.521 159.169L724.563 140H738V140.075Z" fill="white"/>
<path d="M296 144L333 154.206L296 165L304.785 153.545L296 144Z" fill="white"/>
<path d="M378.021 184V161.407C378.021 154.815 373.945 149.852 366.291 149.852C358.887 149.852 353.896 155.407 353.896 161.926V184H342V140.667H352.731L353.48 146.519C358.388 142.222 363.296 140 369.452 140C380.849 140 390 147.63 390 161.185V183.926H378.021V184Z" fill="white"/>
<path d="M438.445 140.049H450V183.653H438.613L438.027 177.296C435.264 182.457 427.645 184.925 422.202 184.999C407.717 185.074 397 177.146 397 161.814C397 146.78 408.22 138.852 422.453 139.002C428.984 139.002 435.264 141.769 438.027 146.107L438.445 140.049ZM409.141 161.814C409.141 170.116 415.588 175.127 423.626 175.127C442.632 175.127 442.632 148.65 423.626 148.65C415.588 148.65 409.141 153.512 409.141 161.814Z" fill="white"/>
<path d="M507 140.075L477.473 202H464.285L473.326 183.056L454 140.075H467.934L475.316 158.944L479.961 171.225L484.937 159.169L493.812 140H507V140.075Z" fill="white"/>
<path d="M552.446 140.049H564V183.653H552.613L552.027 177.296C549.264 182.457 541.645 184.925 536.202 184.999C521.717 185.074 511 177.146 511 161.814C511 146.78 522.22 138.852 536.453 139.002C542.984 139.002 549.264 141.769 552.027 146.107L552.446 140.049ZM523.057 161.814C523.057 170.116 529.504 175.127 537.542 175.127C556.548 175.127 556.548 148.65 537.542 148.65C529.504 148.65 523.057 153.512 523.057 161.814Z" fill="white"/>
<path d="M294 159.541V148.609V134.307H333V123H281C281 143.667 281 164.408 281 185H333V173.469H294V159.541Z" fill="white"/>
<path d="M600.844 167.284H582.954V184H571V127.075C580.948 127.075 590.896 127 600.76 127C631.691 127 631.774 167.284 600.844 167.284ZM582.954 157.42H600.844C616.142 157.42 615.975 137.24 600.844 137.24H582.954V157.42Z" fill="white"/>
<path d="M309.504 90.192V98H284.736V54.48H293.568V90.192H309.504ZM321.964 98.768C315.35 98.768 312.044 95.2693 312.044 88.272C312.044 84.944 312.918 82.5547 314.668 81.104C316.46 79.6107 319.318 78.736 323.244 78.48L330.092 77.968V75.984C330.092 74.704 329.793 73.808 329.196 73.296C328.641 72.784 327.681 72.528 326.316 72.528C324.908 72.528 322.966 72.592 320.492 72.72C318.017 72.8053 315.948 72.912 314.284 73.04L314.028 67.088C318.636 65.8507 322.988 65.232 327.083 65.232C331.18 65.232 334.124 66.0853 335.916 67.792C337.75 69.4987 338.668 72.2293 338.668 75.984V89.296C338.753 90.3627 338.924 91.088 339.18 91.472C339.478 91.856 340.012 92.1333 340.78 92.304L340.524 98.768C338.305 98.768 336.534 98.6187 335.212 98.32C333.932 98.0213 332.652 97.424 331.372 96.528C328.257 98.0213 325.121 98.768 321.964 98.768ZM323.82 91.792C325.441 91.792 327.212 91.536 329.132 91.024L330.092 90.768V83.92L324.268 84.432C321.878 84.6453 320.684 85.9253 320.684 88.272C320.684 90.6187 321.729 91.792 323.82 91.792ZM357.211 98.768C354.48 98.768 352.326 98.2133 350.747 97.104C349.211 95.9947 348.123 94.288 347.483 91.984C346.843 89.68 346.523 86.608 346.523 82.768V66H355.099V82.896C355.099 85.2 355.206 86.928 355.419 88.08C355.632 89.1893 356.059 89.9787 356.699 90.448C357.382 90.8747 358.406 91.088 359.771 91.088C360.752 91.088 361.627 91.0027 362.395 90.832C363.206 90.6613 364.315 90.3627 365.723 89.936V66H374.299V98H365.787V96.208C363.995 97.1893 362.459 97.8507 361.179 98.192C359.942 98.576 358.619 98.768 357.211 98.768ZM382.218 66H390.73V67.792C392.351 66.8533 393.781 66.192 395.018 65.808C396.298 65.424 397.663 65.232 399.114 65.232C403.039 65.232 405.834 66.4907 407.498 69.008C409.162 71.5253 409.994 75.408 409.994 80.656V98H401.418V80.912C401.418 77.968 401.055 75.8987 400.33 74.704C399.647 73.5093 398.325 72.912 396.362 72.912C394.954 72.912 393.354 73.2107 391.562 73.808L390.794 74.064V98H382.218V66ZM429.177 98.768C424.569 98.768 421.22 97.4453 419.129 94.8C417.081 92.112 416.057 87.8453 416.057 82C416.057 76.0693 417.124 71.8027 419.257 69.2C421.39 66.5547 424.868 65.232 429.689 65.232C430.926 65.232 432.292 65.3387 433.785 65.552C435.278 65.7653 437.284 66.128 439.801 66.64L439.545 73.424C435.918 73.0827 433.401 72.912 431.993 72.912C430.03 72.912 428.537 73.1893 427.513 73.744C426.489 74.256 425.764 75.152 425.337 76.432C424.953 77.712 424.761 79.5467 424.761 81.936C424.761 84.368 424.953 86.224 425.337 87.504C425.764 88.784 426.489 89.7013 427.513 90.256C428.58 90.8107 430.116 91.088 432.121 91.088L439.545 90.576L439.801 97.424C435.278 98.32 431.737 98.768 429.177 98.768ZM446.156 53.2H454.732V67.536C456.353 66.7253 457.782 66.1493 459.02 65.808C460.3 65.424 461.665 65.232 463.116 65.232C467.041 65.232 469.814 66.4907 471.436 69.008C473.1 71.4827 473.932 75.3653 473.932 80.656V98H465.356V80.848C465.356 77.9467 465.014 75.8987 464.332 74.704C463.649 73.5093 462.326 72.912 460.364 72.912C458.828 72.912 457.228 73.168 455.564 73.68L454.732 73.936V98H446.156V53.2ZM512.489 98.768C508.094 98.768 504.574 97.9787 501.929 96.4C499.284 94.8213 497.364 92.4107 496.169 89.168C495.017 85.8827 494.441 81.6373 494.441 76.432C494.441 71.184 495.017 66.9173 496.169 63.632C497.364 60.304 499.284 57.8293 501.929 56.208C504.574 54.544 508.094 53.712 512.489 53.712C516.884 53.712 520.404 54.544 523.049 56.208C525.694 57.8293 527.593 60.304 528.745 63.632C529.94 66.9173 530.537 71.184 530.537 76.432C530.537 81.552 529.961 85.7333 528.809 88.976C527.7 92.2187 525.822 94.672 523.177 96.336C520.532 97.9573 516.969 98.768 512.489 98.768ZM512.489 91.088C514.793 91.088 516.585 90.6187 517.865 89.68C519.188 88.6987 520.105 87.1627 520.617 85.072C521.172 82.9387 521.449 80.0587 521.449 76.432C521.449 72.8053 521.172 69.9253 520.617 67.792C520.062 65.616 519.124 64.016 517.801 62.992C516.521 61.9253 514.75 61.392 512.489 61.392C510.228 61.392 508.436 61.9253 507.113 62.992C505.833 64.016 504.916 65.616 504.361 67.792C503.806 69.9253 503.529 72.8053 503.529 76.432C503.529 79.8027 503.764 82.5333 504.233 84.624C504.702 86.7147 505.577 88.3147 506.857 89.424C508.18 90.5333 510.057 91.088 512.489 91.088ZM537.343 66H545.855V67.792C547.476 66.8533 548.906 66.192 550.143 65.808C551.423 65.424 552.788 65.232 554.239 65.232C558.164 65.232 560.959 66.4907 562.623 69.008C564.287 71.5253 565.119 75.408 565.119 80.656V98H556.543V80.912C556.543 77.968 556.18 75.8987 555.455 74.704C554.772 73.5093 553.45 72.912 551.487 72.912C550.079 72.912 548.479 73.2107 546.687 73.808L545.919 74.064V98H537.343V66ZM584.029 54.48H593.309L598.685 90.448H599.645L607.453 54.48H617.693L625.501 90.448H626.461L631.837 54.48H641.117L632.797 98H619.421L612.573 64.912L605.725 98H592.349L584.029 54.48ZM657.637 98.768C652.645 98.768 649.04 97.5093 646.821 94.992C644.602 92.4747 643.493 88.4 643.493 82.768C643.493 76.88 644.645 72.4853 646.949 69.584C649.296 66.6827 652.922 65.232 657.829 65.232C662.352 65.232 665.765 66.448 668.069 68.88C670.416 71.2693 671.589 74.8747 671.589 79.696L670.949 85.648H652.133C652.218 87.1413 652.474 88.2933 652.901 89.104C653.37 89.872 654.096 90.4267 655.077 90.768C656.101 91.0667 657.509 91.216 659.301 91.216C660.709 91.216 662.394 91.1733 664.357 91.088C666.32 91.0027 667.749 90.9173 668.645 90.832L670.437 90.64L670.565 96.976C665.744 98.1707 661.434 98.768 657.637 98.768ZM663.141 79.12C663.141 76.56 662.736 74.7893 661.925 73.808C661.157 72.784 659.77 72.272 657.765 72.272C655.717 72.272 654.266 72.8053 653.413 73.872C652.56 74.896 652.112 76.6453 652.069 79.12H663.141ZM690.902 98.768C687.873 98.768 684.289 98.5547 680.15 98.128L677.718 97.872V53.2H686.294V66.96C687.915 66.32 689.238 65.872 690.262 65.616C691.286 65.36 692.481 65.232 693.846 65.232C698.07 65.232 701.163 66.5333 703.126 69.136C705.131 71.7387 706.134 76.0053 706.134 81.936C706.134 86.1173 705.622 89.424 704.598 91.856C703.617 94.288 702.017 96.0587 699.798 97.168C697.579 98.2347 694.614 98.768 690.902 98.768ZM690.39 91.088C693.035 91.088 694.87 90.4267 695.894 89.104C696.918 87.7387 697.43 85.3707 697.43 82C697.43 78.7147 696.961 76.3893 696.022 75.024C695.126 73.616 693.675 72.912 691.67 72.912C690.262 72.912 688.47 73.1893 686.294 73.744V90.832C688.043 91.0027 689.409 91.088 690.39 91.088Z" fill="white"/>
<rect x="1" y="1" width="800" height="237" rx="12" stroke="white" stroke-width="2"/>
</svg>
