<svg width="902" height="703" viewBox="0 0 902 703" fill="none" xmlns="http://www.w3.org/2000/svg">
<g clip-path="url(#clip0)">
<path d="M794.712 652.863C794.646 652.573 788.289 623.584 801.272 599.507C814.255 575.43 841.969 564.812 842.247 564.707L843.514 564.232L843.813 565.552C843.879 565.842 850.236 594.831 837.253 618.908C824.27 642.985 796.556 653.603 796.278 653.708L795.011 654.183L794.712 652.863ZM841.777 567.454C836.225 569.842 814.316 580.293 803.351 600.627C792.385 620.964 795.693 645.014 796.748 650.961C802.297 648.579 824.198 638.144 835.174 617.788C846.14 597.452 842.832 573.404 841.777 567.454Z" fill="#ED9323"/>
<path d="M827.331 610.463C804 624.5 795.014 652.381 795.014 652.381C795.014 652.381 823.856 657.504 847.187 643.467C870.519 629.43 879.504 601.549 879.504 601.549C879.504 601.549 850.662 596.426 827.331 610.463Z" fill="#0D025B"/>
<path d="M320.418 526C317.644 526 314.841 525.956 312.09 525.87L312.153 523.872C316.103 523.995 320.134 524.029 324.103 523.975L324.13 525.975C322.895 525.991 321.658 526 320.418 526ZM336.163 525.536L336.046 523.54C340.002 523.307 344.009 522.979 347.955 522.565L348.164 524.554C344.188 524.971 340.151 525.302 336.163 525.536V525.536ZM300.068 525.225C296.078 524.919 292.047 524.519 288.085 524.032L288.329 522.048C292.261 522.529 296.261 522.928 300.22 523.23L300.068 525.225ZM360.107 523.025L359.807 521.049C363.738 520.452 367.699 519.76 371.576 518.989L371.966 520.95C368.058 521.727 364.068 522.425 360.107 523.025V523.025ZM276.172 522.294C272.231 521.626 268.253 520.858 264.348 520.011L264.773 518.056C268.647 518.897 272.595 519.659 276.506 520.321L276.172 522.294ZM383.72 518.332L383.24 516.391C387.098 515.437 390.978 514.382 394.772 513.257L395.34 515.175C391.517 516.309 387.608 517.371 383.72 518.332ZM252.644 517.186C248.778 516.157 244.888 515.026 241.081 513.822L241.684 511.916C245.462 513.11 249.322 514.232 253.158 515.252L252.644 517.186ZM406.802 511.484L406.146 509.596C409.89 508.294 413.656 506.887 417.34 505.412L418.082 507.269C414.37 508.755 410.576 510.173 406.802 511.484ZM229.657 509.918C225.902 508.538 222.124 507.049 218.429 505.492L219.205 503.648C222.872 505.193 226.621 506.671 230.347 508.041L229.657 509.918ZM429.131 502.55L428.303 500.729C431.899 499.096 435.513 497.352 439.045 495.546L439.955 497.327C436.396 499.146 432.754 500.903 429.131 502.55ZM450.53 491.611L449.539 489.875C452.988 487.907 456.43 485.839 459.769 483.727L460.837 485.416C457.473 487.545 454.005 489.63 450.53 491.611V491.611ZM470.853 478.754L469.708 477.115C472.955 474.847 476.196 472.471 479.339 470.055L480.558 471.641C477.391 474.075 474.125 476.469 470.853 478.754V478.754ZM166.027 475.938C162.799 473.593 159.575 471.137 156.442 468.636L157.69 467.073C160.799 469.555 163.999 471.992 167.202 474.318L166.027 475.938ZM489.93 464.092L488.641 462.562C491.667 460.009 494.679 457.348 497.594 454.652L498.951 456.121C496.015 458.837 492.98 461.519 489.93 464.092V464.092ZM147.202 460.906C144.196 458.273 141.209 455.535 138.325 452.767L139.71 451.323C142.572 454.071 145.536 456.789 148.519 459.402L147.202 460.906ZM507.603 447.745L506.179 446.341C508.969 443.514 511.729 440.588 514.38 437.646L515.867 438.983C513.195 441.949 510.414 444.896 507.603 447.745V447.745ZM129.83 444.233C127.072 441.333 124.347 438.335 121.733 435.323L123.244 434.013C125.838 437.002 128.541 439.977 131.279 442.854L129.83 444.233ZM523.723 429.854L522.178 428.584C524.699 425.517 527.18 422.352 529.556 419.175L531.158 420.372C528.764 423.573 526.263 426.764 523.723 429.854ZM114.052 426.057C111.575 422.927 109.136 419.695 106.803 416.452L108.426 415.284C110.741 418.502 113.162 421.709 115.62 424.816L114.052 426.057ZM538.152 410.56L536.497 409.437C538.728 406.152 540.912 402.772 542.99 399.389L544.695 400.436C542.6 403.845 540.399 407.251 538.152 410.56ZM100.001 406.53C97.8216 403.189 95.6888 399.752 93.6609 396.311L95.3836 395.295C97.3963 398.71 99.513 402.122 101.676 405.437L100.001 406.53ZM550.767 390.02L549.017 389.053C550.937 385.578 552.802 382.01 554.563 378.446L556.356 379.333C554.582 382.923 552.701 386.519 550.767 390.02H550.767ZM561.448 368.398L559.616 367.596C561.209 363.956 562.74 360.229 564.164 356.518L566.032 357.234C564.596 360.975 563.053 364.73 561.448 368.398H561.448ZM77.5452 364.083C76.012 360.403 74.5437 356.639 73.1814 352.893L75.0613 352.209C76.4129 355.927 77.8699 359.662 79.3909 363.313L77.5452 364.083ZM570.096 345.867L568.198 345.238C569.446 341.478 570.623 337.634 571.698 333.812L573.623 334.354C572.54 338.204 571.353 342.078 570.096 345.867V345.867ZM69.3289 341.484C68.139 337.673 67.0208 333.779 66.0057 329.91L67.9402 329.402C68.9476 333.242 70.0574 337.106 71.2381 340.889L69.3289 341.484ZM576.615 322.689L574.666 322.236C575.562 318.382 576.38 314.445 577.1 310.538L579.067 310.899C578.342 314.838 577.517 318.804 576.615 322.689ZM63.2206 318.195C62.3866 314.289 61.6317 310.31 60.9774 306.365L62.95 306.037C63.6 309.952 64.349 313.901 65.1766 317.777L63.2206 318.195ZM580.973 299.012L578.991 298.74C579.529 294.823 579.983 290.829 580.341 286.868L582.333 287.048C581.972 291.04 581.514 295.064 580.973 299.012ZM59.2791 294.445C58.8074 290.486 58.4202 286.454 58.1277 282.461L60.1228 282.314C60.4124 286.278 60.7972 290.279 61.2654 294.209L59.2791 294.445ZM583.148 275.036L581.15 274.946C581.327 270.983 581.418 266.964 581.418 263H583.418C583.418 266.994 583.327 271.044 583.148 275.036ZM57.5218 270.435C57.4534 267.982 57.4188 265.48 57.4182 263C57.4182 261.461 57.4314 259.925 57.4578 258.392L59.4578 258.427C59.4314 259.948 59.4182 261.473 59.4182 263C59.4187 265.462 59.4534 267.945 59.5208 270.38L57.5218 270.435ZM59.9324 246.487L57.9363 246.362C58.1858 242.366 58.5305 238.33 58.9597 234.365L60.948 234.581C60.5218 238.515 60.1805 242.521 59.9324 246.487H59.9324ZM580.127 234.285C579.727 230.342 579.178 228.42 578.598 224.494L580.576 224.202C581.16 228.158 581.661 231.177 582.065 235.15L580.127 234.285ZM62.5052 222.734L60.5286 222.428C61.1414 218.472 61.8533 214.484 62.6448 210.574L64.6048 210.971C63.8196 214.851 63.1131 218.808 62.5052 222.734H62.5052ZM576.579 212.718C575.817 208.817 574.956 204.89 574.021 201.046L575.964 200.573C576.907 204.446 577.774 208.404 578.542 212.334L576.579 212.718ZM67.2425 199.317L65.3026 198.831C66.2737 194.957 67.3494 191.051 68.4998 187.221L70.4148 187.796C69.2738 191.597 68.2064 195.473 67.2425 199.317ZM570.927 189.503C569.812 185.695 568.593 181.865 567.305 178.117L569.196 177.466C570.494 181.243 571.723 185.104 572.847 188.941L570.927 189.503ZM74.1273 176.403L72.2405 175.74C73.5696 171.959 75.0047 168.161 76.5057 164.449L78.3602 165.199C76.8704 168.882 75.4461 172.652 74.1273 176.403V176.403ZM563.16 166.909C561.701 163.228 560.139 159.534 558.516 155.929L560.34 155.108C561.976 158.741 563.55 162.463 565.02 166.171L563.16 166.909ZM83.1038 154.206L81.2864 153.371C82.9568 149.733 84.7347 146.085 86.5706 142.529L88.348 143.446C86.5257 146.976 84.7615 150.596 83.1038 154.206ZM553.372 145.17C551.582 141.64 549.686 138.102 547.736 134.656L549.476 133.67C551.442 137.143 553.352 140.708 555.156 144.266L553.372 145.17ZM94.0809 132.941L92.3475 131.943C94.3426 128.479 96.4466 125.011 98.6014 121.637L100.287 122.713C98.1488 126.062 96.0604 129.503 94.0809 132.941ZM541.622 124.406C539.509 121.042 537.296 117.69 535.045 114.444L536.688 113.304C538.956 116.575 541.187 119.952 543.316 123.342L541.622 124.406ZM106.954 112.782L105.319 111.63C107.625 108.36 110.035 105.101 112.486 101.942L114.066 103.168C111.635 106.303 109.242 109.537 106.954 112.782ZM528.018 104.79C525.608 101.633 523.098 98.4951 520.556 95.4629L522.089 94.1782C524.65 97.2339 527.179 100.396 529.608 103.576L528.018 104.79ZM121.607 93.8911L120.085 92.5943C122.672 89.5552 125.369 86.5303 128.1 83.6035L129.562 84.9678C126.852 87.8726 124.176 90.875 121.607 93.8911ZM512.677 86.4829C509.991 83.5586 507.203 80.6602 504.395 77.8691L505.805 76.4502C508.635 79.2632 511.443 82.1831 514.15 85.1294L512.677 86.4829ZM137.912 76.4189L136.513 74.9892C139.373 72.1914 142.333 69.4252 145.309 66.7681L146.641 68.2602C143.687 70.897 140.75 73.6421 137.912 76.4189V76.4189ZM495.73 69.6392C492.785 66.9688 489.745 64.335 486.695 61.811L487.97 60.27C491.043 62.813 494.107 65.4668 497.073 68.1577L495.73 69.6392ZM155.73 60.5073L154.468 58.9565C157.561 56.4375 160.758 53.9531 163.97 51.5723L165.161 53.1787C161.973 55.542 158.8 58.0073 155.73 60.5073H155.73ZM174.912 46.2901L173.796 44.6309C177.107 42.4033 180.515 40.2222 183.927 38.1465L184.966 39.8555C181.58 41.915 178.198 44.0801 174.912 46.2901H174.912ZM195.3 33.8887L194.34 32.1338C197.843 30.2173 201.434 28.3579 205.014 26.6064L205.893 28.4033C202.34 30.1411 198.776 31.9863 195.3 33.8887ZM436.67 29.2549C433.112 27.4819 429.466 25.7691 425.835 24.1641L426.644 22.335C430.303 23.9522 433.977 25.6782 437.563 27.4648L436.67 29.2549ZM216.722 23.4107L215.927 21.5757C219.587 19.9893 223.331 18.4678 227.055 17.0532L227.765 18.9233C224.07 20.3267 220.354 21.8364 216.722 23.4107ZM414.774 19.5762C411.071 18.1402 407.281 16.77 403.508 15.5044L404.145 13.6079C407.946 14.8838 411.765 16.2642 415.496 17.7119L414.774 19.5762ZM239.031 14.9395L238.408 13.0391C242.208 11.793 246.086 10.6196 249.933 9.55273L250.468 11.4795C246.65 12.5386 242.802 13.7027 239.031 14.9395H239.031ZM392.094 11.9658C388.28 10.8784 384.389 9.86572 380.531 8.95605L380.99 7.00978C384.878 7.92628 388.798 8.94678 392.643 10.042L392.094 11.9658ZM262.053 8.5503L261.607 6.60059C265.504 5.71045 269.473 4.89942 273.404 4.19044L273.76 6.15821C269.858 6.86231 265.919 7.667 262.053 8.5503ZM368.84 6.48341C364.946 5.75241 360.979 5.10206 357.049 4.5503L357.326 2.56982C361.286 3.12598 365.284 3.78126 369.209 4.51759L368.84 6.48341ZM285.565 4.30714L285.3 2.32471C289.259 1.79639 293.285 1.35206 297.267 1.00538L297.441 2.99757C293.49 3.34229 289.494 3.78268 285.565 4.30714ZM345.181 3.15968C341.242 2.78858 337.232 2.50244 333.262 2.31055L333.36 0.312508C337.359 0.506358 341.399 0.79444 345.368 1.16851L345.181 3.15968ZM309.367 2.23048L309.283 0.232475C312.958 0.0791553 316.704 0.00104104 320.418 6.10352e-05L321.324 0.00151825L321.318 2.00152L320.418 2.00006C316.733 2.00099 313.014 2.07862 309.367 2.23048V2.23048Z" fill="#ED9323"/>
<path d="M902 652.292H169V654.292H902V652.292Z" fill="#ED9323"/>
<path d="M598.011 316.025L608.011 471.025C608.011 471.025 632.011 532.025 631.011 590.025C631.011 590.025 622.011 613.025 629.011 617.025C636.011 621.025 640.011 624.025 636.011 627.025C632.011 630.025 629.011 637.025 632.011 639.025C635.011 641.025 636.011 644.025 635.011 644.025H605.011C605.011 644.025 611.011 629.025 602.011 625.025C593.011 621.025 598.011 611.025 598.011 611.025L531.011 415.025L478.011 595.025C478.011 595.025 487.011 601.025 480.011 604.025C473.011 607.025 470.011 601.025 473.011 607.025C476.011 613.025 472.011 616.025 472.011 617.025C472.011 618.025 442.011 614.025 442.011 614.025C442.011 614.025 457.011 601.025 450.011 598.025C443.011 595.025 440.011 592.025 442.011 590.025C444.011 588.025 452.011 569.025 452.011 569.025C452.011 569.025 456.011 497.025 457.011 494.025C458.011 491.025 457.011 477.025 457.011 470.025C457.011 463.025 456.011 435.025 459.011 428.025C462.011 421.025 465.011 335.025 481.011 325.025C497.011 315.025 598.011 316.025 598.011 316.025Z" fill="#2F2E41"/>
<path d="M471.011 612.025C471.011 612.025 491.011 653.025 477.011 658.025C463.011 663.025 445.011 659.025 441.011 665.025C437.011 671.025 393.011 678.025 392.011 663.025C391.011 648.025 440.011 620.025 440.011 620.025L446.394 609.747L471.011 612.025Z" fill="#2F2E41"/>
<path d="M633.011 642.025C633.011 642.025 653.011 683.025 639.011 688.025C625.011 693.025 607.011 689.025 603.011 695.025C599.011 701.025 555.011 708.025 554.011 693.025C553.011 678.025 602.011 650.025 602.011 650.025L608.394 639.747L633.011 642.025Z" fill="#2F2E41"/>
<path d="M540.511 127.525C558.736 127.525 573.511 112.751 573.511 94.5251C573.511 76.2997 558.736 61.5251 540.511 61.5251C522.285 61.5251 507.511 76.2997 507.511 94.5251C507.511 112.751 522.285 127.525 540.511 127.525Z" fill="#A0616A"/>
<path d="M563.011 112.025L559.011 141.025L529.011 164.025L521.011 153.025V115.025L563.011 112.025Z" fill="#A0616A"/>
<path d="M516.011 149.025C516.011 149.025 547.011 152.025 563.011 141.025L595.011 330.025C595.011 330.025 482.011 339.025 477.011 333.025V274.025L497.011 178.025L516.011 149.025Z" fill="#3F3D56"/>
<path d="M560.257 131.989L571.011 141.025C571.011 141.025 615.011 148.025 612.011 160.025L600.011 302.025L604.011 350.025C604.011 350.025 570.011 341.025 544.011 350.025C518.011 359.025 538.667 156.622 538.667 156.622C538.667 156.622 562.503 134.953 560.257 131.989Z" fill="#D0CDE1"/>
<path d="M521.011 142.935C521.011 142.935 489.011 166.025 485.011 181.025C481.011 196.025 468.011 354.025 468.011 354.025C468.011 354.025 474.011 351.025 477.011 356.025C480.011 361.025 526.011 150.844 521.011 142.935Z" fill="#D0CDE1"/>
<path d="M507.526 93.0874C507.526 93.0874 503.954 87.7287 505.328 81.9578C506.149 78.6814 506.473 75.3002 506.29 71.9275C506.29 71.9275 509.175 62.5841 512.061 57.3629C514.946 52.1416 513.572 49.9431 522.641 48.2943C531.709 46.6455 527.999 34.8289 551.907 47.6073C552.714 48.7335 553.836 49.5956 555.132 50.0846C556.428 50.5737 557.84 50.6679 559.19 50.3553C564.136 49.3935 565.922 56.2636 565.922 56.2636C565.922 56.2636 569.22 54.34 570.457 57.088C571.693 59.8361 580.511 55.4387 580.511 73.988C580.511 92.5373 570.477 109.107 570.477 109.107C570.477 109.107 571.212 77.9045 554.861 74.7442C538.511 71.584 520.923 62.378 516.664 74.1946C514.364 80.8267 511.298 87.1673 507.526 93.0874V93.0874Z" fill="#2F2E41"/>
<path d="M570.835 100.506C572.616 100.506 574.06 98.5808 574.06 96.2059C574.06 93.8309 572.616 91.9056 570.835 91.9056C569.054 91.9056 567.61 93.8309 567.61 96.2059C567.61 98.5808 569.054 100.506 570.835 100.506Z" fill="#A0616A"/>
<path d="M435.301 405.45C427.388 400.691 417.847 401.055 414.22 401.418C415.601 404.79 419.746 413.392 427.658 418.153C435.591 422.923 445.119 422.549 448.741 422.188C447.36 418.817 443.215 410.212 435.301 405.45Z" fill="#ED9323"/>
<path d="M472.484 499.874H423.028C420.077 499.874 417.246 501.046 415.16 503.133C413.073 505.22 411.9 508.05 411.9 511.001C411.9 513.952 413.073 516.783 415.16 518.87C417.246 520.956 420.077 522.129 423.028 522.129H472.484C475.433 522.126 478.261 520.952 480.345 518.866C482.43 516.779 483.601 513.95 483.601 511.001C483.601 508.052 482.43 505.223 480.345 503.136C478.261 501.05 475.433 499.876 472.484 499.874Z" fill="#ED9323"/>
<path d="M696.847 382H419.562C416.337 382 413.143 382.635 410.163 383.87C407.183 385.104 404.475 386.913 402.194 389.194C399.913 391.475 398.104 394.183 396.87 397.163C395.635 400.143 395 403.337 395 406.562V541.661C395 548.175 397.588 554.423 402.194 559.029C406.801 563.636 413.048 566.223 419.562 566.223H696.847C700.072 566.223 703.266 565.588 706.246 564.354C709.226 563.119 711.934 561.31 714.215 559.029C716.496 556.748 718.305 554.041 719.54 551.061C720.774 548.08 721.409 544.886 721.409 541.661V406.562C721.409 403.337 720.774 400.143 719.54 397.163C718.305 394.183 716.496 391.475 714.215 389.194C711.934 386.913 709.226 385.104 706.246 383.87C703.266 382.635 700.072 382 696.847 382ZM412.702 398.755C413.25 398.656 426.234 396.447 436.985 402.916C447.736 409.384 451.866 421.892 452.037 422.421L452.471 423.77L451.076 424.017C449.086 424.328 447.073 424.476 445.059 424.459C440.176 424.459 433.101 423.651 426.793 419.855C416.042 413.388 411.912 400.88 411.741 400.352L411.307 399.003L412.702 398.755ZM472.893 524.186H423.437C419.83 524.186 416.371 522.753 413.82 520.202C411.27 517.652 409.837 514.192 409.837 510.585C409.837 506.978 411.27 503.519 413.82 500.969C416.371 498.418 419.83 496.985 423.437 496.985H472.893C476.5 496.985 479.96 498.418 482.51 500.969C485.061 503.519 486.494 506.978 486.494 510.585C486.494 514.192 485.061 517.652 482.51 520.202C479.96 522.753 476.5 524.186 472.893 524.186V524.186ZM697.918 521.713C697.906 525.644 696.339 529.412 693.559 532.192C690.779 534.971 687.012 536.538 683.081 536.55H645.989C642.058 536.538 638.29 534.971 635.51 532.191C632.73 529.412 631.164 525.644 631.152 521.713V499.458C631.164 495.526 632.73 491.759 635.51 488.979C638.29 486.199 642.058 484.633 645.989 484.621H683.081C687.012 484.633 690.779 486.199 693.559 488.979C696.339 491.759 697.906 495.526 697.918 499.458L697.918 521.713Z" fill="url(#paint0_linear)"/>
<path d="M657.326 517.801H641.252C640.105 517.801 639.004 518.257 638.192 519.069C637.381 519.88 636.925 520.981 636.925 522.129C636.925 523.276 637.381 524.377 638.192 525.189C639.004 526 640.105 526.456 641.252 526.456H657.326C658.473 526.456 659.574 526 660.385 525.189C661.197 524.377 661.653 523.276 661.653 522.129C661.653 520.981 661.197 519.88 660.385 519.069C659.574 518.257 658.473 517.801 657.326 517.801V517.801ZM657.326 523.983H641.252C641.008 523.984 640.767 523.936 640.541 523.843C640.316 523.75 640.111 523.614 639.938 523.442C639.765 523.269 639.628 523.065 639.535 522.839C639.442 522.614 639.393 522.373 639.393 522.129C639.393 521.885 639.442 521.643 639.535 521.418C639.628 521.193 639.765 520.988 639.938 520.816C640.111 520.644 640.316 520.507 640.541 520.414C640.767 520.321 641.008 520.274 641.252 520.274H657.326C657.569 520.274 657.811 520.321 658.036 520.414C658.262 520.507 658.467 520.644 658.64 520.816C658.812 520.988 658.949 521.193 659.043 521.418C659.136 521.643 659.184 521.885 659.184 522.129C659.184 522.373 659.136 522.614 659.043 522.839C658.949 523.065 658.812 523.269 658.64 523.442C658.467 523.614 658.262 523.75 658.036 523.843C657.811 523.936 657.569 523.984 657.326 523.983V523.983Z" fill="#ED9323"/>
<path d="M686.999 517.801H670.926C670.357 517.8 669.794 517.912 669.268 518.129C668.742 518.346 668.264 518.664 667.862 519.066C667.459 519.468 667.14 519.946 666.922 520.471C666.704 520.997 666.592 521.56 666.592 522.129C666.592 522.698 666.704 523.261 666.922 523.786C667.14 524.312 667.459 524.789 667.862 525.191C668.264 525.593 668.742 525.911 669.268 526.129C669.794 526.346 670.357 526.457 670.926 526.456H686.999C688.147 526.456 689.247 526 690.059 525.189C690.871 524.377 691.326 523.276 691.326 522.129C691.326 520.981 690.871 519.88 690.059 519.069C689.247 518.257 688.147 517.801 686.999 517.801ZM686.999 523.983H670.926C670.682 523.984 670.44 523.936 670.215 523.843C669.989 523.75 669.784 523.614 669.612 523.442C669.439 523.269 669.302 523.065 669.209 522.839C669.115 522.614 669.067 522.373 669.067 522.129C669.067 521.885 669.115 521.643 669.209 521.418C669.302 521.193 669.439 520.988 669.612 520.816C669.784 520.644 669.989 520.507 670.215 520.414C670.44 520.321 670.682 520.274 670.926 520.274H686.999C687.49 520.275 687.961 520.471 688.308 520.819C688.655 521.167 688.849 521.638 688.849 522.129C688.849 522.62 688.655 523.091 688.308 523.439C687.961 523.786 687.49 523.982 686.999 523.983V523.983Z" fill="#ED9323"/>
<path d="M657.326 506.674H641.252C640.105 506.674 639.004 507.13 638.192 507.941C637.381 508.753 636.925 509.853 636.925 511.001C636.925 512.149 637.381 513.249 638.192 514.061C639.004 514.873 640.105 515.328 641.252 515.328H657.326C657.894 515.329 658.458 515.218 658.984 515.001C659.509 514.784 659.987 514.465 660.39 514.063C660.792 513.661 661.112 513.184 661.329 512.659C661.547 512.133 661.659 511.57 661.659 511.001C661.659 510.432 661.547 509.869 661.329 509.344C661.112 508.818 660.792 508.341 660.39 507.939C659.987 507.537 659.509 507.218 658.984 507.001C658.458 506.784 657.894 506.673 657.326 506.674V506.674ZM657.326 512.856H641.252C640.76 512.856 640.289 512.66 639.941 512.312C639.593 511.965 639.398 511.493 639.398 511.001C639.398 510.509 639.593 510.037 639.941 509.69C640.289 509.342 640.76 509.146 641.252 509.146H657.326C657.817 509.146 658.289 509.342 658.637 509.69C658.985 510.037 659.18 510.509 659.18 511.001C659.18 511.493 658.985 511.965 658.637 512.312C658.289 512.66 657.817 512.856 657.326 512.856V512.856Z" fill="#ED9323"/>
<path d="M686.999 506.674H670.926C670.357 506.673 669.794 506.784 669.268 507.001C668.742 507.218 668.264 507.537 667.862 507.939C667.459 508.341 667.14 508.818 666.922 509.344C666.704 509.869 666.592 510.432 666.592 511.001C666.592 511.57 666.704 512.133 666.922 512.659C667.14 513.184 667.459 513.661 667.862 514.063C668.264 514.465 668.742 514.784 669.268 515.001C669.794 515.218 670.357 515.329 670.926 515.328H686.999C688.147 515.328 689.247 514.873 690.059 514.061C690.871 513.249 691.326 512.149 691.326 511.001C691.326 509.853 690.871 508.753 690.059 507.941C689.247 507.13 688.147 506.674 686.999 506.674ZM686.999 512.856H670.926C670.434 512.856 669.962 512.66 669.614 512.312C669.267 511.965 669.071 511.493 669.071 511.001C669.071 510.509 669.267 510.037 669.614 509.69C669.962 509.342 670.434 509.146 670.926 509.146H686.999C687.491 509.146 687.963 509.342 688.31 509.69C688.658 510.037 688.854 510.509 688.854 511.001C688.854 511.493 688.658 511.965 688.31 512.312C687.963 512.66 687.491 512.856 686.999 512.856Z" fill="#ED9323"/>
<path d="M657.326 495.546H641.252C640.105 495.546 639.004 496.002 638.192 496.814C637.381 497.625 636.925 498.726 636.925 499.874C636.925 501.021 637.381 502.122 638.192 502.933C639.004 503.745 640.105 504.201 641.252 504.201H657.326C658.473 504.201 659.574 503.745 660.385 502.933C661.197 502.122 661.653 501.021 661.653 499.874C661.653 498.726 661.197 497.625 660.385 496.814C659.574 496.002 658.473 495.546 657.326 495.546V495.546ZM657.326 501.728H641.252C640.76 501.728 640.289 501.533 639.941 501.185C639.593 500.837 639.398 500.365 639.398 499.874C639.398 499.382 639.593 498.91 639.941 498.562C640.289 498.214 640.76 498.019 641.252 498.019H657.326C657.817 498.019 658.289 498.214 658.637 498.562C658.985 498.91 659.18 499.382 659.18 499.874C659.18 500.365 658.985 500.837 658.637 501.185C658.289 501.533 657.817 501.728 657.326 501.728V501.728Z" fill="#ED9323"/>
<path d="M686.999 495.546H670.926C670.357 495.545 669.794 495.657 669.268 495.874C668.742 496.091 668.264 496.409 667.862 496.811C667.459 497.213 667.14 497.691 666.922 498.216C666.704 498.741 666.592 499.305 666.592 499.874C666.592 500.442 666.704 501.006 666.922 501.531C667.14 502.057 667.459 502.534 667.862 502.936C668.264 503.338 668.742 503.656 669.268 503.873C669.794 504.091 670.357 504.202 670.926 504.201H686.999C688.146 504.199 689.245 503.743 690.055 502.931C690.865 502.12 691.32 501.02 691.32 499.874C691.32 498.727 690.865 497.627 690.055 496.816C689.245 496.005 688.146 495.548 686.999 495.546V495.546ZM686.999 501.728H670.926C670.434 501.728 669.962 501.533 669.614 501.185C669.267 500.837 669.071 500.365 669.071 499.874C669.071 499.382 669.267 498.91 669.614 498.562C669.962 498.214 670.434 498.019 670.926 498.019H686.999C687.491 498.019 687.963 498.214 688.31 498.562C688.658 498.91 688.854 499.382 688.854 499.874C688.854 500.365 688.658 500.837 688.31 501.185C687.963 501.533 687.491 501.728 686.999 501.728Z" fill="#ED9323"/>
<path d="M609.011 352.025L601.842 375.417C601.842 375.417 600.011 419.025 576.011 413.025C552.011 407.025 583.011 356.025 583.011 356.025L590.011 345.025L609.011 352.025Z" fill="#A0616A"/>
<path d="M473.011 352.025L465.842 375.417C465.842 375.417 464.011 419.025 440.011 413.025C416.011 407.025 447.011 356.025 447.011 356.025L454.011 345.025L473.011 352.025Z" fill="#A0616A"/>
<path d="M604.011 153.025C604.011 153.025 620.011 149.025 625.011 176.025C630.011 203.025 636.011 280.025 636.011 280.025L612.011 361.025C612.011 361.025 588.011 348.025 583.011 350.025L601.897 279.704L586.011 208.025C586.011 208.025 600.011 153.025 604.011 153.025Z" fill="#D0CDE1"/>
<path opacity="0.15" d="M580.747 209.393L601.747 279.393L580.747 350.393L592.747 279.393L580.747 209.393Z" fill="black"/>
<path d="M485.011 208.025L449.011 350.025C449.011 350.025 468 356.292 475 361.292L485.011 208.025Z" fill="#D0CDE1"/>
<path d="M107.362 564.884C162.591 564.884 207.362 520.113 207.362 464.884C207.362 409.656 162.591 364.884 107.362 364.884C52.1337 364.884 7.36221 409.656 7.36221 464.884C7.36221 520.113 52.1337 564.884 107.362 564.884Z" fill="#0D025B"/>
<path opacity="0.1" d="M107.362 550.884C154.859 550.884 193.362 512.381 193.362 464.884C193.362 417.388 154.859 378.884 107.362 378.884C59.8657 378.884 21.3622 417.388 21.3622 464.884C21.3622 512.381 59.8657 550.884 107.362 550.884Z" fill="#ED9323"/>
<path d="M103.241 515.632V503.115C96.914 502.992 90.3682 500.76 86.5502 497.662L89.1682 489.359C93.7055 492.759 99.208 494.626 104.878 494.687C112.623 494.687 117.86 489.606 117.86 482.542C117.86 475.726 113.605 471.513 105.532 467.794C94.4047 462.837 87.5319 457.136 87.5319 446.355C87.5319 436.068 93.9684 428.26 104.005 426.401V413.884H110.769V425.906C115.812 425.975 120.732 427.479 124.951 430.243L122.223 438.423C118.177 435.653 113.382 434.183 108.478 434.209C100.078 434.209 96.914 439.91 96.914 444.867C96.914 451.312 100.95 454.534 110.442 458.996C121.678 464.201 127.351 470.645 127.351 481.675C127.351 491.465 121.351 500.637 110.114 502.742V515.632H103.241Z" fill="#ED9323"/>
<path d="M213 668.292C142.39 678.823 70.6096 678.823 0 668.292V644.292C70.6845 653.759 142.316 653.759 213 644.292V668.292Z" fill="#ED9323"/>
<path d="M213 631.292C142.39 641.823 70.6096 641.823 0 631.292V607.292C70.6845 616.759 142.316 616.759 213 607.292V631.292Z" fill="#ED9323"/>
<path d="M213 594.292C142.39 604.823 70.6096 604.823 0 594.292V570.292C70.6845 579.759 142.316 579.759 213 570.292V594.292Z" fill="#ED9323"/>
<path d="M592.273 459.98L564.451 476.953C559.952 479.697 555.324 479.055 550.494 477.4H550.475C545.884 475.824 541.478 473.371 539.081 468.252C538.731 467.493 538.436 466.714 538.178 465.936C539.818 468.466 541.957 470.393 544.373 471.6C545.663 472.262 547.009 472.709 548.392 472.943C551.618 473.488 555.011 472.923 558.09 471.035L576.398 459.863L573.43 453.537L592.273 459.98Z" fill="white"/>
<path d="M517.362 455.542L545.184 438.569C549.682 435.824 554.31 436.467 559.141 438.121H559.159C563.75 439.698 568.157 442.15 570.554 447.269C570.904 448.029 571.199 448.807 571.457 449.586C569.816 447.055 567.677 445.148 565.262 443.922C563.972 443.26 562.626 442.812 561.243 442.579C558.016 442.034 554.624 442.598 551.545 444.486L533.236 455.659L536.205 461.984L517.362 455.542Z" fill="white"/>
<path d="M541.551 456.89L565.907 451.167L548.372 466.213L549.866 459.031L541.551 456.89Z" fill="white"/>
<path d="M591.314 489.098H593.859V500.446H591.351L591.222 498.791C590.614 500.134 588.936 500.777 587.738 500.796C584.548 500.816 582.188 498.753 582.188 494.762C582.188 490.85 584.658 488.787 587.793 488.826C589.231 488.826 590.614 489.546 591.222 490.675L591.314 489.098ZM584.843 494.782C584.843 496.942 586.262 498.246 588.032 498.246C592.218 498.246 592.218 491.356 588.032 491.356C586.262 491.337 584.843 492.602 584.843 494.782Z" fill="white"/>
<path d="M606.673 489.098L600.109 505.195H597.178L599.187 500.271L594.891 489.098H597.989L599.63 494.003L600.662 497.195L601.768 494.062L603.741 489.079H606.673V489.098Z" fill="white"/>
<path d="M509.046 490.169L517.122 492.874L509.046 495.736L510.964 492.699L509.046 490.169Z" fill="white"/>
<path d="M527.041 500.524V494.587C527.041 492.855 526.138 491.551 524.442 491.551C522.801 491.551 521.694 493.011 521.694 494.723V500.524H519.058V489.137H521.436L521.602 490.675C522.69 489.546 523.778 488.962 525.142 488.962C527.668 488.962 529.696 490.967 529.696 494.529V500.504H527.041V500.524Z" fill="white"/>
<path d="M540.519 489.157H543.063V500.504H540.556L540.427 498.85C539.818 500.193 538.141 500.835 536.942 500.855C533.753 500.874 531.393 498.811 531.393 494.821C531.393 490.908 533.863 488.845 536.998 488.884C538.436 488.884 539.818 489.604 540.427 490.733L540.519 489.157ZM534.066 494.821C534.066 496.981 535.486 498.285 537.256 498.285C541.441 498.285 541.441 491.395 537.256 491.395C535.486 491.395 534.066 492.66 534.066 494.821Z" fill="white"/>
<path d="M555.712 489.157L549.148 505.254H546.216L548.226 500.329L543.93 489.157H547.027L548.668 494.062L549.701 497.254L550.807 494.12L552.78 489.137H555.712V489.157Z" fill="white"/>
<path d="M565.649 489.157H568.194V500.504H565.686L565.557 498.85C564.949 500.193 563.271 500.835 562.073 500.855C558.883 500.874 556.523 498.811 556.523 494.821C556.523 490.908 558.993 488.845 562.128 488.884C563.566 488.884 564.949 489.604 565.557 490.733L565.649 489.157ZM559.178 494.821C559.178 496.981 560.598 498.285 562.368 498.285C566.553 498.285 566.553 491.395 562.368 491.395C560.598 491.395 559.178 492.66 559.178 494.821Z" fill="white"/>
<path d="M508.512 494.12V491.278V487.561H517.085V484.621H505.654C505.654 489.994 505.654 495.385 505.654 500.738H517.085V497.74H508.512V494.12Z" fill="white"/>
<path d="M576.472 496.183H572.527V500.504H569.89V485.789C572.084 485.789 574.278 485.77 576.454 485.77C583.276 485.77 583.294 496.183 576.472 496.183ZM572.527 493.633H576.472C579.846 493.633 579.809 488.417 576.472 488.417H572.527V493.633Z" fill="white"/>
<path d="M392.6 262.665L334.912 304.553C325.584 311.326 315.989 309.74 305.973 305.657H305.935C296.416 301.766 287.279 295.714 282.309 283.081C281.583 281.207 280.971 279.286 280.436 277.364C283.838 283.609 288.273 288.364 293.281 291.343C295.957 292.976 298.748 294.081 301.615 294.657C308.305 296.002 315.339 294.609 321.723 289.95L359.685 262.377L353.53 246.766L392.6 262.665Z" fill="#0D025B"/>
<path d="M237.275 251.713L294.963 209.826C304.291 203.053 313.886 204.638 323.902 208.721H323.941C333.46 212.612 342.596 218.665 347.566 231.298C348.293 233.171 348.904 235.093 349.44 237.014C346.037 230.77 341.603 226.062 336.594 223.036C333.918 221.403 331.128 220.298 328.261 219.721C321.57 218.376 314.536 219.769 308.152 224.429L270.19 252.001L276.345 267.613L237.275 251.713Z" fill="#0D025B"/>
<path d="M289.352 255.785L339.853 241.663L303.497 278.794L306.594 261.069L289.352 255.785Z" fill="#FF9810"/>
</g>
<defs>
<linearGradient id="paint0_linear" x1="395" y1="392.5" x2="721" y2="566" gradientUnits="userSpaceOnUse">
<stop stop-color="#0D025B"/>
<stop offset="0.999635" stop-color="#0D025B" stop-opacity="0.520932"/>
</linearGradient>
<clipPath id="clip0">
<rect width="902" height="702.007" fill="white"/>
</clipPath>
</defs>
</svg>
